<?xml version="1.0" encoding="utf-8" standalone="no"?>
<!DOCTYPE svg PUBLIC "-//W3C//DTD SVG 1.1//EN"
  "http://www.w3.org/Graphics/SVG/1.1/DTD/svg11.dtd">
<svg xmlns:xlink="http://www.w3.org/1999/xlink" width="437.355261pt" height="528.478125pt" viewBox="0 0 437.355261 528.478125" xmlns="http://www.w3.org/2000/svg" version="1.1">
 <metadata>
  <rdf:RDF xmlns:dc="http://purl.org/dc/elements/1.1/" xmlns:cc="http://creativecommons.org/ns#" xmlns:rdf="http://www.w3.org/1999/02/22-rdf-syntax-ns#">
   <cc:Work>
    <dc:type rdf:resource="http://purl.org/dc/dcmitype/StillImage"/>
    <dc:date>2026-07-28T19:29:49.100643</dc:date>
    <dc:format>image/svg+xml</dc:format>
    <dc:creator>
     <cc:Agent>
      <dc:title>Matplotlib v3.10.8, https://matplotlib.org/</dc:title>
     </cc:Agent>
    </dc:creator>
   </cc:Work>
  </rdf:RDF>
 </metadata>
 <defs>
  <style type="text/css">*{stroke-linejoin: round; stroke-linecap: butt}</style>
 </defs>
 <g id="figure_1">
  <g id="patch_1">
   <path d="M 0 528.478125 
L 437.355261 528.478125 
L 437.355261 0 
L 0 0 
z
" style="fill: #ffffff"/>
  </g>
  <g id="axes_1">
   <g id="PatchCollection_1">
    <defs>
     <path id="m435c5a9e35" d="M 26.425239 -227.147424 
L 26.488485 -231.289747 
L 26.820979 -236.418934 
L 27.658461 -241.4902 
L 28.992743 -246.453949 
L 30.810775 -251.261637 
L 33.094778 -255.866249 
L 35.822414 -260.222751 
L 38.967009 -264.288539 
L 41.591772 -267.355928 
L 45.072047 -271.04276 
L 48.894973 -274.372967 
L 53.024174 -277.31486 
L 57.42036 -279.840449 
L 61.32819 -281.603749 
L 62.218171 -282.345929 
L 66.013195 -284.84936 
L 67.024944 -286.48049 
L 70.12542 -290.530575 
L 73.607943 -294.25726 
L 77.438975 -297.624655 
L 81.581619 -300.60033 
L 85.995982 -303.155628 
L 90.639551 -305.26594 
L 95.467606 -306.910944 
L 100.43365 -308.074796 
L 105.489859 -308.746288 
L 110.587538 -308.918954 
L 114.023882 -308.86662 
L 116.601342 -308.827355 
L 121.661051 -308.502959 
L 126.665082 -307.687129 
L 131.565815 -306.387629 
L 136.31662 -304.616823 
L 140.872288 -302.391563 
L 145.189469 -299.733022 
L 149.227084 -296.666499 
L 152.946711 -293.221173 
L 153.261592 -292.866528 
L 153.666752 -292.684611 
L 155.556305 -291.621648 
L 155.858914 -292.440968 
L 158.048093 -296.966428 
L 160.66423 -301.259226 
L 163.682851 -305.279203 
L 167.075717 -308.988751 
L 170.811087 -312.353168 
L 174.854016 -315.340978 
L 180.930194 -319.392248 
L 185.415919 -322.067677 
L 190.147508 -324.279399 
L 191.847609 -324.874535 
L 192.674737 -325.955268 
L 196.15679 -329.682365 
L 199.987392 -333.050218 
L 204.129654 -336.026392 
L 208.543684 -338.582226 
L 213.186973 -340.693106 
L 218.014804 -342.338703 
L 222.980684 -343.503171 
L 228.036789 -344.175293 
L 233.134426 -344.348599 
L 233.803527 -344.338493 
L 235.047624 -348.970908 
L 236.864381 -353.778621 
L 239.147079 -358.383402 
L 241.873398 -362.740224 
L 245.016681 -366.806486 
L 247.6405 -369.874404 
L 251.120048 -373.562381 
L 254.942383 -376.893774 
L 259.07113 -379.83688 
L 263.466998 -382.363689 
L 268.088153 -384.450157 
L 272.890618 -386.076427 
L 277.82869 -387.227022 
L 282.820849 -387.886432 
L 287.714198 -390.156053 
L 289.594709 -390.927624 
L 291.968463 -392.292196 
L 292.354869 -392.466675 
L 291.2069 -397.359996 
L 290.53427 -402.416081 
L 290.360462 -407.513749 
L 290.422622 -411.656061 
L 290.515877 -417.869642 
L 290.842575 -422.959789 
L 291.666621 -427.993403 
L 292.980079 -432.922009 
L 294.7703 -437.698141 
L 297.012573 -442.260603 
L 297.037667 -442.413894 
L 298.351099 -447.342509 
L 300.141294 -452.118653 
L 302.391013 -456.696328 
L 305.07859 -461.03145 
L 308.178141 -465.082269 
L 311.659816 -468.809773 
L 315.490085 -472.178064 
L 319.632061 -475.154704 
L 324.045853 -477.711027 
L 328.688956 -479.822413 
L 333.516652 -481.468529 
L 338.482449 -482.633521 
L 343.538524 -483.306171 
L 348.636183 -483.48 
L 351.212956 -483.441343 
L 356.303104 -483.114678 
L 361.336722 -482.290665 
L 366.265335 -480.977239 
L 371.041477 -479.187049 
L 375.619152 -476.937337 
L 377.826334 -475.568989 
L 379.568197 -474.916122 
L 384.145879 -472.666457 
L 388.481013 -469.978935 
L 392.53185 -466.879438 
L 396.259379 -463.397816 
L 399.627702 -459.567599 
L 402.60438 -455.425673 
L 405.160747 -451.011927 
L 407.272183 -446.368867 
L 408.918354 -441.541209 
L 410.083408 -436.575445 
L 410.756123 -431.519397 
L 410.930022 -426.421758 
L 410.883458 -423.315026 
L 410.774787 -416.065832 
L 410.448178 -410.975671 
L 409.624218 -405.942035 
L 408.310842 -401.013399 
L 406.5207 -396.237229 
L 404.271031 -391.659523 
L 401.583501 -387.324366 
L 398.483992 -383.273508 
L 395.002354 -379.545961 
L 391.172118 -376.177624 
L 387.520808 -373.553542 
L 387.162023 -373.084645 
L 386.139881 -371.990338 
L 387.61383 -369.445379 
L 389.725204 -364.802278 
L 391.371309 -359.974584 
L 392.536292 -355.008791 
L 393.208933 -349.952721 
L 393.382754 -344.855068 
L 393.336143 -341.748331 
L 393.227374 -334.499233 
L 392.900694 -329.409069 
L 392.076663 -324.375435 
L 390.763216 -319.44681 
L 388.973003 -314.670658 
L 388.958177 -314.64049 
L 389.210195 -312.7623 
L 389.387264 -307.625746 
L 389.278491 -300.376713 
L 388.951808 -295.28656 
L 388.127776 -290.252937 
L 386.81433 -285.324323 
L 386.305505 -283.966818 
L 386.136071 -281.549567 
L 385.802959 -278.769314 
L 384.963073 -273.807377 
L 383.647248 -268.949925 
L 381.867819 -264.242498 
L 380.090648 -260.15172 
L 377.66453 -255.281837 
L 374.742626 -250.692253 
L 371.356955 -246.433258 
L 367.544616 -242.551522 
L 363.347383 -239.08958 
L 358.811249 -236.085367 
L 358.235556 -235.746045 
L 354.044711 -233.52701 
L 349.669062 -231.699172 
L 345.145031 -230.277747 
L 344.374474 -230.110962 
L 340.862824 -228.660062 
L 340.740285 -228.621968 
L 341.257251 -227.105563 
L 342.421988 -222.139703 
L 343.094376 -217.08359 
L 343.267941 -211.985919 
L 343.221173 -208.87919 
L 342.877209 -203.641142 
L 342.016397 -198.522464 
L 342.063499 -198.321646 
L 342.735907 -193.26555 
L 342.909495 -188.167894 
L 342.815987 -181.954438 
L 342.49731 -176.937122 
L 341.69538 -171.974065 
L 340.417702 -167.111703 
L 338.67623 -162.395529 
L 336.487257 -157.869668 
L 333.871263 -153.576464 
L 330.852724 -149.556085 
L 327.459881 -145.846147 
L 323.724479 -142.481359 
L 319.681467 -139.493203 
L 317.373419 -137.954178 
L 314.856961 -135.260364 
L 311.026486 -131.892296 
L 306.884326 -128.915898 
L 302.470374 -126.359836 
L 297.827138 -124.248726 
L 292.999335 -122.602898 
L 288.03346 -121.438203 
L 285.530604 -121.105382 
L 282.599579 -119.408141 
L 277.956297 -117.297119 
L 273.128456 -115.651385 
L 268.162553 -114.486788 
L 263.106411 -113.814543 
L 258.008724 -113.641125 
L 252.853753 -113.718876 
L 248.5607 -113.994736 
L 248.118221 -113.979689 
L 248.071176 -110.872936 
L 247.743793 -105.782817 
L 246.919066 -100.749298 
L 245.604938 -95.820854 
L 243.814065 -91.04495 
L 241.563694 -86.467579 
L 238.875498 -82.132826 
L 235.775365 -78.082435 
L 235.01681 -77.270553 
L 234.465128 -73.927876 
L 233.131134 -68.963473 
L 231.313273 -64.155125 
L 229.029326 -59.549865 
L 226.301633 -55.192741 
L 223.156878 -51.126373 
L 220.532082 -48.058704 
L 217.052232 -44.372007 
L 213.229767 -41.041864 
L 209.101052 -38.099958 
L 204.705369 -35.574278 
L 200.084537 -33.488852 
L 195.282518 -31.86352 
L 190.344997 -30.713747 
L 185.318949 -30.05047 
L 180.252191 -29.88 
L 177.674477 -29.919073 
L 175.096566 -29.958158 
L 171.659511 -30.010277 
L 169.081672 -30.049372 
L 163.066733 -30.140625 
L 160.488527 -30.179764 
L 155.42932 -30.503833 
L 150.425751 -31.319238 
L 145.525421 -32.618222 
L 140.77495 -34.388426 
L 136.219533 -36.613009 
L 131.902509 -39.270807 
L 127.864948 -42.336535 
L 124.145261 -45.781028 
L 120.778838 -49.571514 
L 120.017008 -50.518575 
L 119.191308 -49.925497 
L 114.776867 -47.370279 
L 110.133228 -45.260056 
L 105.305111 -43.61515 
L 100.339013 -42.451405 
L 95.282762 -41.780026 
L 90.185051 -41.60748 
L 84.170442 -41.699226 
L 79.225846 -42.010809 
L 74.333381 -42.79177 
L 69.537501 -44.035014 
L 64.881783 -45.729242 
L 60.408531 -47.859062 
L 54.441338 -51.057573 
L 50.014164 -53.722024 
L 45.873426 -56.812891 
L 42.060048 -60.299626 
L 38.611719 -64.147768 
L 35.56252 -68.319285 
L 32.942586 -72.772949 
L 30.777812 -77.464742 
L 29.089592 -82.348294 
L 27.894613 -87.375341 
L 27.204683 -92.496197 
L 27.026622 -97.660252 
L 27.137256 -104.909307 
L 27.184682 -108.01619 
L 27.512683 -113.106225 
L 28.338011 -118.139601 
L 29.652719 -123.067844 
L 31.444146 -127.843494 
L 33.695039 -132.420559 
L 36.383721 -136.754959 
L 39.4843 -140.804953 
L 42.966915 -144.531538 
L 46.798027 -147.898824 
L 50.940742 -150.874384 
L 55.355162 -153.429562 
L 59.998776 -155.53975 
L 64.826863 -157.184626 
L 69.792926 -158.348349 
L 74.849141 -159.019713 
L 79.946815 -159.192251 
L 94.55352 -158.96943 
L 99.643563 -158.641481 
L 104.676952 -157.816202 
L 109.605213 -156.501541 
L 114.380885 -154.71016 
L 118.584811 -152.642818 
L 119.591729 -153.720439 
L 123.422605 -157.088031 
L 123.581752 -157.202358 
L 120.402247 -157.406154 
L 115.398299 -158.221875 
L 110.497634 -159.52125 
L 105.746883 -161.291915 
L 101.191249 -163.517022 
L 96.874082 -166.175398 
L 92.83646 -169.241748 
L 89.116802 -172.686895 
L 87.746868 -174.229729 
L 86.192806 -174.253441 
L 83.615495 -174.292762 
L 80.178466 -174.345239 
L 77.601113 -174.38459 
L 72.511046 -174.712611 
L 67.477641 -175.537967 
L 62.549373 -176.852708 
L 57.773702 -178.644173 
L 53.196622 -180.895109 
L 48.862212 -183.583839 
L 44.812215 -186.684468 
L 41.085635 -190.167136 
L 37.71836 -193.998303 
L 34.74282 -198.141072 
L 32.187671 -202.555547 
L 30.077519 -207.199213 
L 28.432687 -212.02735 
L 27.269015 -216.993459 
L 26.597711 -222.049715 
z
" style="stroke: #006d9c; stroke-opacity: 0.45"/>
    </defs>
    <g clip-path="url(#pa10fdcf8b1)">
     <use xlink:href="#m435c5a9e35" x="0" y="528.478125" style="fill: #add8e6; fill-opacity: 0.45; stroke: #006d9c; stroke-opacity: 0.45"/>
    </g>
   </g>
   <g id="PatchCollection_2">
    <path d="M 342.33002 121.744242 
L 342.392181 117.60193 
L 342.485434 111.388457 
L 345.062234 111.427127 
L 347.701179 107.323466 
L 347.747791 104.21674 
L 347.794394 101.110003 
L 347.85654 96.967687 
L 350.433313 97.006343 
L 350.371178 101.148651 
L 353.80689 101.200175 
L 356.383675 101.238813 
L 358.960449 101.27745 
L 358.913886 104.384182 
L 358.805217 111.63323 
L 356.228412 111.594599 
L 353.651597 111.555967 
L 347.639045 111.465788 
L 347.592433 114.572516 
L 347.545842 117.679258 
L 347.48369 121.821571 
z
" clip-path="url(#pa10fdcf8b1)" style="fill: #31a354; stroke: #ffffff"/>
    <path d="M 324.124297 189.834453 
L 324.186522 185.692147 
L 329.387193 182.662818 
L 332.823197 182.71442 
L 332.776546 185.821151 
L 335.353559 185.859838 
L 337.930573 185.898515 
L 337.977194 182.79178 
L 341.413193 182.84334 
L 341.366582 185.950077 
L 341.257814 193.19912 
L 335.244754 193.108876 
L 329.278337 189.911858 
L 326.701318 189.87315 
z
" clip-path="url(#pa10fdcf8b1)" style="fill: #31a354; stroke: #ffffff"/>
    <path d="M 284.407187 202.702593 
L 284.516382 195.453539 
L 287.140202 192.385621 
L 289.717238 192.42443 
L 289.670452 195.531166 
L 293.10651 195.582892 
L 295.683549 195.621682 
L 295.730304 192.514951 
L 300.931111 189.485777 
L 309.583464 185.472665 
L 313.01948 185.524327 
L 315.643184 182.456338 
L 318.220192 182.495064 
L 320.75051 185.640525 
L 320.688264 189.782839 
L 324.124297 189.834453 
L 326.654656 192.979903 
L 326.701318 189.87315 
L 329.278337 189.911858 
L 329.185029 196.125324 
L 332.621085 196.176911 
L 332.667724 193.070176 
L 335.244754 193.108876 
L 335.198116 196.215601 
L 337.775158 196.254282 
L 337.666366 203.503317 
L 335.042674 206.571384 
L 332.465615 206.53269 
L 332.512253 203.425952 
L 326.49912 203.335659 
L 326.452461 206.442405 
L 326.405804 209.549142 
L 326.343594 213.691448 
L 323.766505 213.652741 
L 320.330397 213.601117 
L 320.392636 209.458815 
L 323.828737 209.510428 
L 323.922069 203.296968 
L 320.548231 199.10304 
L 317.971196 199.06431 
L 317.908922 203.206624 
L 315.331887 203.167896 
L 309.318748 203.077493 
L 304.117898 206.106715 
L 304.071173 209.213452 
L 304.008865 213.355756 
L 300.572754 213.304072 
L 298.058005 209.122977 
L 292.950621 205.938677 
L 289.514525 205.886946 
z
M 295.636782 198.728421 
L 300.728552 202.948289 
L 304.164633 202.999979 
L 304.27368 195.750936 
L 295.683549 195.621682 
z
M 326.56133 199.193367 
L 329.138381 199.232059 
L 329.185029 196.125324 
L 326.607998 196.086635 
z
" clip-path="url(#pa10fdcf8b1)" style="fill: #31a354; stroke: #ffffff"/>
    <path d="M 315.082837 219.737133 
L 315.129532 216.630399 
L 320.283722 216.707853 
L 320.330397 213.601117 
L 323.766505 213.652741 
L 323.673176 219.866206 
L 326.250273 219.904914 
L 328.827382 219.943613 
L 332.263514 219.9952 
L 332.310149 216.888469 
L 334.887239 216.927156 
L 337.417705 220.072566 
L 337.308931 227.321598 
L 334.73181 227.282927 
L 334.778434 224.176192 
L 320.174809 223.956896 
L 317.597693 223.918176 
z
" clip-path="url(#pa10fdcf8b1)" style="fill: #31a354; stroke: #ffffff"/>
    <path d="M 232.255563 242.312479 
L 232.302516 239.205742 
L 232.349481 236.099008 
L 252.107646 236.397435 
L 255.450069 242.662767 
L 255.387553 246.805075 
L 255.340678 249.911813 
L 246.750064 249.782141 
L 243.313822 249.730254 
L 240.736615 249.691324 
z
" clip-path="url(#pa10fdcf8b1)" style="fill: #31a354; stroke: #ffffff"/>
    <path d="M 312.085442 247.658981 
L 312.147704 243.51668 
L 312.241105 237.303212 
L 314.818248 237.341945 
L 317.395401 237.38068 
L 317.34872 240.487411 
L 323.36208 240.577752 
L 325.939236 240.616457 
L 328.516394 240.655153 
L 331.952594 240.706739 
L 334.529753 240.745425 
L 334.196641 243.525678 
L 332.419471 247.616456 
L 331.843777 247.955778 
L 328.407548 247.904188 
L 323.206535 250.933519 
L 317.193106 250.843178 
L 317.239786 247.736444 
L 314.662614 247.697717 
z
" clip-path="url(#pa10fdcf8b1)" style="fill: #31a354; stroke: #ffffff"/>
    <path d="M 246.703152 252.888865 
L 246.750064 249.782141 
L 255.340678 249.911813 
L 255.387553 246.805075 
L 257.964737 246.843951 
L 258.027234 242.701641 
L 258.07411 239.594904 
L 264.087474 239.685611 
L 266.617794 242.831207 
L 266.555334 246.973533 
L 271.662852 250.157968 
L 271.616027 253.264704 
L 271.569201 256.371441 
L 268.991995 256.332591 
L 263.884448 253.14814 
L 260.44819 253.096309 
L 257.870997 253.057431 
L 255.293805 253.018543 
z
" clip-path="url(#pa10fdcf8b1)" style="fill: #31a354; stroke: #ffffff"/>
    <path d="M 203.593095 262.595192 
L 203.640124 259.488449 
L 203.687173 256.38171 
L 209.763351 252.330441 
L 212.340548 252.369448 
L 212.277858 256.511757 
L 214.855066 256.550755 
L 218.291344 256.602747 
L 218.746901 264.208322 
L 214.714048 265.870971 
L 209.496898 269.935282 
L 206.919633 269.896266 
L 206.982339 265.753954 
z
" clip-path="url(#pa10fdcf8b1)" style="fill: #31a354; stroke: #ffffff"/>
    <path d="M 268.617324 281.186452 
L 268.679765 277.044143 
L 268.77344 270.830673 
L 268.835893 266.688369 
L 277.42665 266.817832 
L 277.364235 270.960141 
L 277.317432 274.066875 
L 274.630961 281.277086 
L 271.194599 281.225301 
z
" clip-path="url(#pa10fdcf8b1)" style="fill: #31a354; stroke: #ffffff"/>
    <path d="M 211.713685 293.792587 
L 211.776368 289.650274 
L 211.870398 283.436804 
L 214.494679 280.369071 
L 220.570959 276.317727 
L 229.16182 276.447618 
L 229.099214 280.589926 
L 229.005289 286.803399 
L 231.473028 294.091401 
L 234.862496 297.250051 
L 234.815559 300.356795 
L 231.379128 300.304863 
L 228.848762 297.159178 
L 228.895727 294.05245 
L 228.958332 289.910137 
L 226.428008 286.764441 
L 222.991629 286.712486 
L 220.367355 289.780241 
L 220.304701 293.922557 
L 214.29099 293.831588 
z
M 217.837053 286.634528 
L 220.414341 286.673506 
L 220.461327 283.566773 
L 217.884049 283.527795 
z
" clip-path="url(#pa10fdcf8b1)" style="fill: #31a354; stroke: #ffffff"/>
    <path d="M 259.667194 304.875192 
L 259.729669 300.73289 
L 263.212931 297.677975 
L 265.837082 294.610103 
L 270.991688 294.687809 
L 270.94487 297.794536 
L 270.898053 300.901265 
L 274.334481 300.953059 
L 274.225247 308.202089 
L 270.788807 308.150315 
L 268.102194 315.360498 
L 265.524832 315.321648 
L 265.587276 311.179337 
L 263.103628 304.927016 
z
" clip-path="url(#pa10fdcf8b1)" style="fill: #31a354; stroke: #ffffff"/>
    <path d="M 78.394592 302.124182 
L 78.457838 297.981859 
L 81.0826 294.914469 
L 84.519025 294.966924 
L 89.721064 291.938849 
L 93.220672 287.848957 
L 98.42265 284.820836 
L 101.859044 284.873228 
L 107.013622 284.951799 
L 109.63826 281.884338 
L 109.748721 274.635279 
L 109.796057 271.528553 
L 113.2324 271.580888 
L 115.809653 271.620149 
L 118.339597 274.76615 
L 124.290152 279.00003 
L 124.242862 282.106774 
L 124.195562 285.213527 
L 121.618278 285.174281 
L 115.557273 288.189455 
L 106.855799 295.307602 
L 101.653786 298.33578 
L 95.57685 302.386406 
L 92.999507 302.347083 
L 86.985717 302.255323 
L 84.408373 302.216001 
L 80.971931 302.163534 
z
" clip-path="url(#pa10fdcf8b1)" style="fill: #31a354; stroke: #ffffff"/>
    <path d="M 217.41412 314.595138 
L 217.476771 310.452814 
L 217.570758 304.239337 
L 220.210735 300.136011 
L 222.835036 297.068256 
L 228.848762 297.159178 
L 231.379128 300.304863 
L 231.316535 304.447181 
L 231.269582 307.553904 
L 228.692243 307.514947 
L 226.114905 307.475982 
L 226.005321 314.725032 
L 225.958359 317.831766 
L 222.52186 317.779827 
L 222.568842 314.673095 
L 219.991477 314.634105 
z
" clip-path="url(#pa10fdcf8b1)" style="fill: #31a354; stroke: #ffffff"/>
    <path d="M 123.722645 316.280913 
L 123.769929 313.174169 
L 124.195562 285.213527 
L 126.820138 282.146008 
L 130.256515 282.198299 
L 135.363824 285.383459 
L 137.893864 288.529406 
L 137.830869 292.671729 
L 141.267278 292.723994 
L 147.281003 292.81541 
L 148.705316 293.18503 
L 149.842568 293.890171 
L 151.529311 295.98742 
L 156.636752 299.172462 
L 154.855612 303.288693 
L 154.761229 309.502158 
L 157.338584 309.541304 
L 157.275671 313.683624 
L 154.65111 316.751211 
L 152.073737 316.712053 
L 152.120943 313.60532 
L 146.107087 313.513937 
L 146.059871 316.620679 
L 143.482498 316.581512 
L 140.905131 316.542315 
L 140.952363 313.435595 
L 137.515878 313.38332 
L 134.938507 313.344133 
L 132.313888 316.411653 
L 132.266623 319.5184 
L 129.689238 319.479181 
L 126.252735 319.426884 
z
" clip-path="url(#pa10fdcf8b1)" style="fill: #31a354; stroke: #ffffff"/>
    <path d="M 189.063145 314.1659 
L 189.125921 310.023583 
L 194.280615 310.101684 
L 194.374746 303.888216 
L 200.388532 303.979303 
L 202.965864 304.018317 
L 206.402312 304.07035 
L 206.308259 310.283818 
L 208.72888 320.678619 
L 213.883636 320.75662 
L 213.773959 328.005666 
L 202.605236 327.836634 
L 202.558209 330.943363 
L 197.403392 330.865305 
L 197.450451 327.75857 
L 197.513184 323.616262 
L 191.593432 317.311688 
z
" clip-path="url(#pa10fdcf8b1)" style="fill: #31a354; stroke: #ffffff"/>
    <path d="M 273.866385 332.020338 
L 273.913187 328.91362 
L 276.552983 324.810144 
L 279.177153 321.742239 
L 285.237808 318.726075 
L 285.284586 315.619337 
L 291.29842 315.709867 
L 291.251652 318.816597 
L 287.721632 324.978337 
L 285.144257 324.939524 
L 285.081893 329.08183 
L 287.65929 329.120635 
L 287.612524 332.227368 
L 282.457719 332.149767 
L 276.443775 332.059183 
z
" clip-path="url(#pa10fdcf8b1)" style="fill: #31a354; stroke: #ffffff"/>
    <path d="M 213.773959 328.005666 
L 213.883636 320.75662 
L 213.930646 317.649891 
L 217.367139 317.70187 
L 217.41412 314.595138 
L 219.991477 314.634105 
L 222.568842 314.673095 
L 222.52186 317.779827 
L 225.958359 317.831766 
L 225.911395 320.938512 
L 228.488763 320.977471 
L 228.441812 324.084199 
L 228.379204 328.226513 
L 225.801807 328.187549 
L 222.36528 328.135606 
L 222.318312 331.242333 
L 222.271342 334.349071 
L 219.693927 334.310095 
L 217.116513 334.27111 
L 217.163501 331.164384 
L 217.21049 328.05765 
z
" clip-path="url(#pa10fdcf8b1)" style="fill: #31a354; stroke: #ffffff"/>
    <path d="M 177.957392 309.854248 
L 178.004509 306.747526 
L 180.691781 299.537549 
L 183.316207 296.469889 
L 185.893522 296.508961 
L 185.846431 299.615694 
L 185.783642 303.758017 
L 189.220082 303.810108 
L 194.437506 299.7459 
L 197.87394 299.797961 
L 200.608087 289.48121 
L 200.655141 286.374474 
L 206.668803 286.465526 
L 206.62178 289.572255 
L 209.199072 289.611275 
L 211.776368 289.650274 
L 211.713685 293.792587 
L 209.089357 296.860317 
L 209.042333 299.96706 
L 203.028582 299.876016 
L 200.45126 299.836993 
L 200.388532 303.979303 
L 194.374746 303.888216 
L 194.280615 310.101684 
L 189.125921 310.023583 
L 189.063145 314.1659 
L 191.593432 317.311688 
L 197.513184 323.616262 
L 197.450451 327.75857 
L 197.403392 330.865305 
L 202.558209 330.943363 
L 202.605236 327.836634 
L 213.773959 328.005666 
L 217.21049 328.05765 
L 217.163501 331.164384 
L 217.116513 334.27111 
L 219.693927 334.310095 
L 219.631282 338.452407 
L 213.570289 341.468178 
L 210.992858 341.42918 
L 208.415428 341.390173 
L 205.837997 341.351166 
L 202.401421 341.299147 
L 199.871029 338.153389 
L 193.96685 330.81325 
L 191.499284 323.52516 
L 188.968977 320.379369 
L 185.532468 320.327278 
L 183.002193 317.181471 
L 180.47194 314.035648 
z
M 203.075624 296.769286 
L 209.089357 296.860317 
L 209.13638 293.753586 
L 203.122668 293.662547 
z
" clip-path="url(#pa10fdcf8b1)" style="fill: #31a354; stroke: #ffffff"/>
    <path d="M 205.743946 347.564623 
L 205.837997 341.351166 
L 208.415428 341.390173 
L 210.992858 341.42918 
L 213.570289 341.468178 
L 219.631282 338.452407 
L 219.693927 334.310095 
L 222.271342 334.349071 
L 222.318312 331.242333 
L 222.36528 328.135606 
L 225.801807 328.187549 
L 228.379204 328.226513 
L 234.346192 331.424111 
L 234.299272 334.530846 
L 228.285315 334.439974 
L 225.707899 334.401008 
L 225.488754 348.899097 
L 222.05216 348.847145 
L 216.038074 348.756196 
L 213.460631 348.717218 
L 210.883192 348.67821 
z
" clip-path="url(#pa10fdcf8b1)" style="fill: #31a354; stroke: #ffffff"/>
    <path d="M 225.488754 348.899097 
L 225.707899 334.401008 
L 228.285315 334.439974 
L 234.299272 334.530846 
L 234.346192 331.424111 
L 239.501002 331.501981 
L 242.031494 334.647631 
L 247.982943 338.880734 
L 247.936053 341.987464 
L 247.889163 345.094195 
L 250.404091 349.275397 
L 253.840687 349.327251 
L 253.903185 345.184936 
L 259.058057 345.262695 
L 258.99559 349.405004 
L 256.371284 352.472859 
L 253.793818 352.433976 
L 253.746949 355.540712 
L 256.277555 358.686323 
L 258.855031 358.725198 
L 258.792568 362.867502 
L 253.637597 362.78975 
L 253.700081 358.647439 
L 245.108501 358.517782 
L 245.045977 362.660099 
L 243.327646 362.634158 
L 241.903208 362.264678 
L 239.063117 360.498141 
L 236.51692 358.388057 
L 233.986378 355.242395 
L 228.066187 348.938066 
z
" clip-path="url(#pa10fdcf8b1)" style="fill: #31a354; stroke: #ffffff"/>
    <path d="M 267.493438 355.747993 
L 267.540268 352.641263 
L 270.226956 345.431077 
L 273.710354 342.37613 
L 276.287776 342.414958 
L 276.240986 345.521682 
L 282.255009 345.612256 
L 284.879216 342.54434 
L 284.92598 339.437604 
L 290.93997 339.528134 
L 290.846462 345.74159 
L 284.770084 349.793368 
L 278.709247 352.809547 
L 278.662457 355.916273 
L 276.084994 355.877449 
L 270.070908 355.786838 
z
" clip-path="url(#pa10fdcf8b1)" style="fill: #31a354; stroke: #ffffff"/>
    <path d="M 176.292759 419.625517 
L 176.339862 416.518784 
L 178.917497 416.557867 
L 178.980292 412.415557 
L 179.027394 409.308837 
L 184.229715 406.280246 
L 187.666516 406.332324 
L 190.19706 409.478108 
L 196.16445 412.675937 
L 196.101725 416.818235 
L 190.087251 416.727139 
L 190.040187 419.833866 
L 178.870394 419.664599 
z
" clip-path="url(#pa10fdcf8b1)" style="fill: #31a354; stroke: #ffffff"/>
    <path d="M 155.671608 419.312631 
L 155.718779 416.205898 
L 155.781681 412.063592 
L 159.218509 412.115772 
L 161.843293 409.048159 
L 164.468046 405.980554 
L 170.482473 406.071802 
L 170.388216 412.285265 
L 172.965839 412.324366 
L 176.402675 412.376488 
L 178.980292 412.415557 
L 178.917497 416.557867 
L 176.339862 416.518784 
L 170.325381 416.42758 
L 164.263754 419.443062 
L 161.638953 422.510674 
L 159.061305 422.47154 
z
" clip-path="url(#pa10fdcf8b1)" style="fill: #31a354; stroke: #ffffff"/>
    <path d="M 78.995979 431.611025 
L 79.106614 424.361969 
L 79.154038 421.255237 
L 93.760743 421.478058 
L 93.713378 424.584798 
L 91.072538 428.68781 
L 87.635643 428.635384 
L 87.588248 431.742122 
L 91.025165 431.794541 
L 90.977781 434.901281 
L 84.963172 434.809536 
z
M 85.057968 428.59607 
L 87.635643 428.635384 
L 87.698825 424.49307 
L 85.12116 424.453746 
z
" clip-path="url(#pa10fdcf8b1)" style="fill: #31a354; stroke: #ffffff"/>
    <path d="M 158.746899 443.183095 
L 158.794056 440.076363 
L 158.856935 435.934046 
L 178.619215 436.233836 
L 178.556415 440.376143 
L 183.711815 440.454285 
L 183.664734 443.561016 
L 181.039939 446.628685 
L 178.462225 446.589613 
L 175.884512 446.55053 
L 172.447559 446.498413 
L 169.869837 446.45932 
L 163.855167 446.36807 
L 161.277461 446.328939 
z
M 169.916977 443.352586 
L 172.494667 443.391685 
L 172.541787 440.284949 
L 169.964084 440.245858 
z
" clip-path="url(#pa10fdcf8b1)" style="fill: #31a354; stroke: #ffffff"/>
   </g>
   <g id="LineCollection_1">
    <path d="M 26.425239 301.330701 
L 26.488485 297.188378 
L 26.820979 292.059191 
L 27.658461 286.987925 
L 28.992743 282.024176 
L 30.810775 277.216488 
L 33.094778 272.611876 
L 35.822414 268.255374 
L 38.967009 264.189586 
L 41.591772 261.122197 
L 45.072047 257.435365 
L 48.894973 254.105158 
L 53.024174 251.163265 
L 57.42036 248.637676 
L 61.32819 246.874376 
L 62.218171 246.132196 
L 66.013195 243.628765 
L 67.024944 241.997635 
L 70.12542 237.94755 
L 73.607943 234.220865 
L 77.438975 230.85347 
L 81.581619 227.877795 
L 85.995982 225.322497 
L 90.639551 223.212185 
L 95.467606 221.567181 
L 100.43365 220.403329 
L 105.489859 219.731837 
L 110.587538 219.559171 
L 116.601342 219.65077 
L 121.661051 219.975166 
L 126.665082 220.790996 
L 131.565815 222.090496 
L 136.31662 223.861302 
L 140.872288 226.086562 
L 145.189469 228.745103 
L 149.227084 231.811626 
L 153.666752 235.793514 
L 155.556305 236.856477 
L 155.858914 236.037157 
L 158.048093 231.511697 
L 160.66423 227.218899 
L 163.682851 223.198922 
L 167.075717 219.489374 
L 170.811087 216.124957 
L 174.854016 213.137147 
L 180.930194 209.085877 
L 185.415919 206.410448 
L 190.147508 204.198726 
L 191.847609 203.60359 
L 192.674737 202.522857 
L 196.15679 198.79576 
L 199.987392 195.427907 
L 204.129654 192.451733 
L 208.543684 189.895899 
L 213.186973 187.785019 
L 218.014804 186.139422 
L 222.980684 184.974954 
L 228.036789 184.302832 
L 233.803527 184.139632 
L 235.047624 179.507217 
L 236.864381 174.699504 
L 239.147079 170.094723 
L 241.873398 165.737901 
L 245.016681 161.671639 
L 247.6405 158.603721 
L 251.120048 154.915744 
L 254.942383 151.584351 
L 259.07113 148.641245 
L 263.466998 146.114436 
L 268.088153 144.027968 
L 272.890618 142.401698 
L 277.82869 141.251103 
L 282.820849 140.591693 
L 289.594709 137.550501 
L 292.354869 136.01145 
L 291.2069 131.118129 
L 290.53427 126.062044 
L 290.360462 120.964376 
L 290.515877 110.608483 
L 290.842575 105.518336 
L 291.666621 100.484722 
L 292.980079 95.556116 
L 294.7703 90.779984 
L 297.037667 86.064231 
L 298.351099 81.135616 
L 300.141294 76.359472 
L 302.391013 71.781797 
L 305.07859 67.446675 
L 308.178141 63.395856 
L 311.659816 59.668352 
L 315.490085 56.300061 
L 319.632061 53.323421 
L 324.045853 50.767098 
L 328.688956 48.655712 
L 333.516652 47.009596 
L 338.482449 45.844604 
L 343.538524 45.171954 
L 348.636183 44.998125 
L 351.212956 45.036782 
L 356.303104 45.363447 
L 361.336722 46.18746 
L 366.265335 47.500886 
L 371.041477 49.291076 
L 375.619152 51.540788 
L 377.826334 52.909136 
L 379.568197 53.562003 
L 384.145879 55.811668 
L 388.481013 58.49919 
L 392.53185 61.598687 
L 396.259379 65.080309 
L 399.627702 68.910526 
L 402.60438 73.052452 
L 405.160747 77.466198 
L 407.272183 82.109258 
L 408.918354 86.936916 
L 410.083408 91.90268 
L 410.756123 96.958728 
L 410.930022 102.056367 
L 410.774787 112.412293 
L 410.448178 117.502454 
L 409.624218 122.53609 
L 408.310842 127.464726 
L 406.5207 132.240896 
L 404.271031 136.818602 
L 401.583501 141.153759 
L 398.483992 145.204617 
L 395.002354 148.932164 
L 391.172118 152.300501 
L 387.520808 154.924583 
L 387.162023 155.39348 
L 386.139881 156.487787 
L 387.61383 159.032746 
L 389.725204 163.675847 
L 391.371309 168.503541 
L 392.536292 173.469334 
L 393.208933 178.525404 
L 393.382754 183.623057 
L 393.227374 193.978892 
L 392.900694 199.069056 
L 392.076663 204.10269 
L 390.763216 209.031315 
L 388.958177 213.837635 
L 389.210195 215.715825 
L 389.387264 220.852379 
L 389.278491 228.101412 
L 388.951808 233.191565 
L 388.127776 238.225188 
L 386.81433 243.153802 
L 386.305505 244.511307 
L 386.136071 246.928558 
L 385.802959 249.708811 
L 384.963073 254.670748 
L 383.647248 259.5282 
L 381.867819 264.235627 
L 380.090648 268.326405 
L 377.66453 273.196288 
L 374.742626 277.785872 
L 371.356955 282.044867 
L 367.544616 285.926603 
L 363.347383 289.388545 
L 358.235556 292.73208 
L 354.044711 294.951115 
L 349.669062 296.778953 
L 344.374474 298.367163 
L 340.740285 299.856157 
L 341.257251 301.372562 
L 342.421988 306.338422 
L 343.094376 311.394535 
L 343.267941 316.492206 
L 343.221173 319.598935 
L 342.877209 324.836983 
L 342.063499 330.156479 
L 342.735907 335.212575 
L 342.909495 340.310231 
L 342.815987 346.523687 
L 342.49731 351.541003 
L 341.69538 356.50406 
L 340.417702 361.366422 
L 338.67623 366.082596 
L 336.487257 370.608457 
L 333.871263 374.901661 
L 330.852724 378.92204 
L 327.459881 382.631978 
L 323.724479 385.996766 
L 319.681467 388.984922 
L 317.373419 390.523947 
L 314.856961 393.217761 
L 311.026486 396.585829 
L 306.884326 399.562227 
L 302.470374 402.118289 
L 297.827138 404.229399 
L 292.999335 405.875227 
L 288.03346 407.039922 
L 285.530604 407.372743 
L 282.599579 409.069984 
L 277.956297 411.181006 
L 273.128456 412.82674 
L 268.162553 413.991337 
L 263.106411 414.663582 
L 258.008724 414.837 
L 252.853753 414.759249 
L 248.118221 414.498436 
L 248.071176 417.605189 
L 247.743793 422.695308 
L 246.919066 427.728827 
L 245.604938 432.657271 
L 243.814065 437.433175 
L 241.563694 442.010546 
L 238.875498 446.345299 
L 235.01681 451.207572 
L 234.465128 454.550249 
L 233.131134 459.514652 
L 231.313273 464.323 
L 229.029326 468.92826 
L 226.301633 473.285384 
L 223.156878 477.351752 
L 220.532082 480.419421 
L 217.052232 484.106118 
L 213.229767 487.436261 
L 209.101052 490.378167 
L 204.705369 492.903847 
L 200.084537 494.989273 
L 195.282518 496.614605 
L 190.344997 497.764378 
L 185.318949 498.427655 
L 180.252191 498.598125 
L 160.488527 498.298361 
L 155.42932 497.974292 
L 150.425751 497.158887 
L 145.525421 495.859903 
L 140.77495 494.089699 
L 136.219533 491.865116 
L 131.902509 489.207318 
L 127.864948 486.14159 
L 124.145261 482.697097 
L 120.017008 477.95955 
L 119.191308 478.552628 
L 114.776867 481.107846 
L 110.133228 483.218069 
L 105.305111 484.862975 
L 100.339013 486.02672 
L 95.282762 486.698099 
L 90.185051 486.870645 
L 84.170442 486.778899 
L 79.225846 486.467316 
L 74.333381 485.686355 
L 69.537501 484.443111 
L 64.881783 482.748883 
L 60.408531 480.619063 
L 54.441338 477.420552 
L 50.014164 474.756101 
L 45.873426 471.665234 
L 42.060048 468.178499 
L 38.611719 464.330357 
L 35.56252 460.15884 
L 32.942586 455.705176 
L 30.777812 451.013383 
L 29.089592 446.129831 
L 27.894613 441.102784 
L 27.204683 435.981928 
L 27.026622 430.817873 
L 27.184682 420.461935 
L 27.512683 415.3719 
L 28.338011 410.338524 
L 29.652719 405.410281 
L 31.444146 400.634631 
L 33.695039 396.057566 
L 36.383721 391.723166 
L 39.4843 387.673172 
L 42.966915 383.946587 
L 46.798027 380.579301 
L 50.940742 377.603741 
L 55.355162 375.048563 
L 59.998776 372.938375 
L 64.826863 371.293499 
L 69.792926 370.129776 
L 74.849141 369.458412 
L 79.946815 369.285874 
L 94.55352 369.508695 
L 99.643563 369.836644 
L 104.676952 370.661923 
L 109.605213 371.976584 
L 114.380885 373.767965 
L 118.584811 375.835307 
L 119.591729 374.757686 
L 123.581752 371.275767 
L 120.402247 371.071971 
L 115.398299 370.25625 
L 110.497634 368.956875 
L 105.746883 367.18621 
L 101.191249 364.961103 
L 96.874082 362.302727 
L 92.83646 359.236377 
L 89.116802 355.79123 
L 87.746868 354.248396 
L 77.601113 354.093535 
L 72.511046 353.765514 
L 67.477641 352.940158 
L 62.549373 351.625417 
L 57.773702 349.833952 
L 53.196622 347.583016 
L 48.862212 344.894286 
L 44.812215 341.793657 
L 41.085635 338.310989 
L 37.71836 334.479822 
L 34.74282 330.337053 
L 32.187671 325.922578 
L 30.077519 321.278912 
L 28.432687 316.450775 
L 27.269015 311.484666 
L 26.597711 306.42841 
L 26.425239 301.330701 
L 26.425239 301.330701 
" clip-path="url(#pa10fdcf8b1)" style="fill: none; stroke-dasharray: 5.55,2.4; stroke-dashoffset: 0; stroke: #e6550d; stroke-width: 1.5"/>
   </g>
   <g id="line2d_1">
    <path d="M 32.577316 493.835325 
L 136.528135 493.835325 
" clip-path="url(#pa10fdcf8b1)" style="fill: none; stroke: #000000; stroke-width: 4; stroke-linecap: square"/>
   </g>
   <g id="text_1">
    <!-- N -->
    <g transform="translate(407.797363 67.224525) scale(0.13 -0.13)">
     <defs>
      <path id="DejaVuSans-Bold-4e" d="M 588 4666 
L 1931 4666 
L 3628 1466 
L 3628 4666 
L 4769 4666 
L 4769 0 
L 3425 0 
L 1728 3200 
L 1728 0 
L 588 0 
L 588 4666 
z
" transform="scale(0.015625)"/>
     </defs>
     <use xlink:href="#DejaVuSans-Bold-4e"/>
    </g>
   </g>
   <g id="patch_2">
    <path d="M 411.737051 62.234925 
Q 411.737051 52.01864 411.737051 41.802355 
L 408.237051 41.802355 
Q 410.737051 35.80244 413.237051 29.802525 
Q 415.737051 35.80244 418.237051 41.802355 
L 414.737051 41.802355 
Q 414.737051 52.01864 414.737051 62.234925 
L 411.737051 62.234925 
z
" style="stroke: #000000; stroke-linecap: round"/>
   </g>
   <g id="text_2">
    <!-- 1 km -->
    <g transform="translate(73.270381 486.350925) scale(0.09 -0.09)">
     <defs>
      <path id="DejaVuSans-31" d="M 794 531 
L 1825 531 
L 1825 4091 
L 703 3866 
L 703 4441 
L 1819 4666 
L 2450 4666 
L 2450 531 
L 3481 531 
L 3481 0 
L 794 0 
L 794 531 
z
" transform="scale(0.015625)"/>
      <path id="DejaVuSans-20" transform="scale(0.015625)"/>
      <path id="DejaVuSans-6b" d="M 581 4863 
L 1159 4863 
L 1159 1991 
L 2875 3500 
L 3609 3500 
L 1753 1863 
L 3688 0 
L 2938 0 
L 1159 1709 
L 1159 0 
L 581 0 
L 581 4863 
z
" transform="scale(0.015625)"/>
      <path id="DejaVuSans-6d" d="M 3328 2828 
Q 3544 3216 3844 3400 
Q 4144 3584 4550 3584 
Q 5097 3584 5394 3201 
Q 5691 2819 5691 2113 
L 5691 0 
L 5113 0 
L 5113 2094 
Q 5113 2597 4934 2840 
Q 4756 3084 4391 3084 
Q 3944 3084 3684 2787 
Q 3425 2491 3425 1978 
L 3425 0 
L 2847 0 
L 2847 2094 
Q 2847 2600 2669 2842 
Q 2491 3084 2119 3084 
Q 1678 3084 1418 2786 
Q 1159 2488 1159 1978 
L 1159 0 
L 581 0 
L 581 3500 
L 1159 3500 
L 1159 2956 
Q 1356 3278 1631 3431 
Q 1906 3584 2284 3584 
Q 2666 3584 2933 3390 
Q 3200 3197 3328 2828 
z
" transform="scale(0.015625)"/>
     </defs>
     <use xlink:href="#DejaVuSans-31"/>
     <use xlink:href="#DejaVuSans-20" transform="translate(63.623047 0)"/>
     <use xlink:href="#DejaVuSans-6b" transform="translate(95.410156 0)"/>
     <use xlink:href="#DejaVuSans-6d" transform="translate(153.320312 0)"/>
    </g>
   </g>
   <g id="text_3">
    <!-- Symmetric difference: 0.000 m² | Working CRS: EPSG:32617 -->
    <g transform="translate(11.429553 516.288525) scale(0.1 -0.1)">
     <defs>
      <path id="DejaVuSans-53" d="M 3425 4513 
L 3425 3897 
Q 3066 4069 2747 4153 
Q 2428 4238 2131 4238 
Q 1616 4238 1336 4038 
Q 1056 3838 1056 3469 
Q 1056 3159 1242 3001 
Q 1428 2844 1947 2747 
L 2328 2669 
Q 3034 2534 3370 2195 
Q 3706 1856 3706 1288 
Q 3706 609 3251 259 
Q 2797 -91 1919 -91 
Q 1588 -91 1214 -16 
Q 841 59 441 206 
L 441 856 
Q 825 641 1194 531 
Q 1563 422 1919 422 
Q 2459 422 2753 634 
Q 3047 847 3047 1241 
Q 3047 1584 2836 1778 
Q 2625 1972 2144 2069 
L 1759 2144 
Q 1053 2284 737 2584 
Q 422 2884 422 3419 
Q 422 4038 858 4394 
Q 1294 4750 2059 4750 
Q 2388 4750 2728 4690 
Q 3069 4631 3425 4513 
z
" transform="scale(0.015625)"/>
      <path id="DejaVuSans-79" d="M 2059 -325 
Q 1816 -950 1584 -1140 
Q 1353 -1331 966 -1331 
L 506 -1331 
L 506 -850 
L 844 -850 
Q 1081 -850 1212 -737 
Q 1344 -625 1503 -206 
L 1606 56 
L 191 3500 
L 800 3500 
L 1894 763 
L 2988 3500 
L 3597 3500 
L 2059 -325 
z
" transform="scale(0.015625)"/>
      <path id="DejaVuSans-65" d="M 3597 1894 
L 3597 1613 
L 953 1613 
Q 991 1019 1311 708 
Q 1631 397 2203 397 
Q 2534 397 2845 478 
Q 3156 559 3463 722 
L 3463 178 
Q 3153 47 2828 -22 
Q 2503 -91 2169 -91 
Q 1331 -91 842 396 
Q 353 884 353 1716 
Q 353 2575 817 3079 
Q 1281 3584 2069 3584 
Q 2775 3584 3186 3129 
Q 3597 2675 3597 1894 
z
M 3022 2063 
Q 3016 2534 2758 2815 
Q 2500 3097 2075 3097 
Q 1594 3097 1305 2825 
Q 1016 2553 972 2059 
L 3022 2063 
z
" transform="scale(0.015625)"/>
      <path id="DejaVuSans-74" d="M 1172 4494 
L 1172 3500 
L 2356 3500 
L 2356 3053 
L 1172 3053 
L 1172 1153 
Q 1172 725 1289 603 
Q 1406 481 1766 481 
L 2356 481 
L 2356 0 
L 1766 0 
Q 1100 0 847 248 
Q 594 497 594 1153 
L 594 3053 
L 172 3053 
L 172 3500 
L 594 3500 
L 594 4494 
L 1172 4494 
z
" transform="scale(0.015625)"/>
      <path id="DejaVuSans-72" d="M 2631 2963 
Q 2534 3019 2420 3045 
Q 2306 3072 2169 3072 
Q 1681 3072 1420 2755 
Q 1159 2438 1159 1844 
L 1159 0 
L 581 0 
L 581 3500 
L 1159 3500 
L 1159 2956 
Q 1341 3275 1631 3429 
Q 1922 3584 2338 3584 
Q 2397 3584 2469 3576 
Q 2541 3569 2628 3553 
L 2631 2963 
z
" transform="scale(0.015625)"/>
      <path id="DejaVuSans-69" d="M 603 3500 
L 1178 3500 
L 1178 0 
L 603 0 
L 603 3500 
z
M 603 4863 
L 1178 4863 
L 1178 4134 
L 603 4134 
L 603 4863 
z
" transform="scale(0.015625)"/>
      <path id="DejaVuSans-63" d="M 3122 3366 
L 3122 2828 
Q 2878 2963 2633 3030 
Q 2388 3097 2138 3097 
Q 1578 3097 1268 2742 
Q 959 2388 959 1747 
Q 959 1106 1268 751 
Q 1578 397 2138 397 
Q 2388 397 2633 464 
Q 2878 531 3122 666 
L 3122 134 
Q 2881 22 2623 -34 
Q 2366 -91 2075 -91 
Q 1284 -91 818 406 
Q 353 903 353 1747 
Q 353 2603 823 3093 
Q 1294 3584 2113 3584 
Q 2378 3584 2631 3529 
Q 2884 3475 3122 3366 
z
" transform="scale(0.015625)"/>
      <path id="DejaVuSans-64" d="M 2906 2969 
L 2906 4863 
L 3481 4863 
L 3481 0 
L 2906 0 
L 2906 525 
Q 2725 213 2448 61 
Q 2172 -91 1784 -91 
Q 1150 -91 751 415 
Q 353 922 353 1747 
Q 353 2572 751 3078 
Q 1150 3584 1784 3584 
Q 2172 3584 2448 3432 
Q 2725 3281 2906 2969 
z
M 947 1747 
Q 947 1113 1208 752 
Q 1469 391 1925 391 
Q 2381 391 2643 752 
Q 2906 1113 2906 1747 
Q 2906 2381 2643 2742 
Q 2381 3103 1925 3103 
Q 1469 3103 1208 2742 
Q 947 2381 947 1747 
z
" transform="scale(0.015625)"/>
      <path id="DejaVuSans-66" d="M 2375 4863 
L 2375 4384 
L 1825 4384 
Q 1516 4384 1395 4259 
Q 1275 4134 1275 3809 
L 1275 3500 
L 2222 3500 
L 2222 3053 
L 1275 3053 
L 1275 0 
L 697 0 
L 697 3053 
L 147 3053 
L 147 3500 
L 697 3500 
L 697 3744 
Q 697 4328 969 4595 
Q 1241 4863 1831 4863 
L 2375 4863 
z
" transform="scale(0.015625)"/>
      <path id="DejaVuSans-6e" d="M 3513 2113 
L 3513 0 
L 2938 0 
L 2938 2094 
Q 2938 2591 2744 2837 
Q 2550 3084 2163 3084 
Q 1697 3084 1428 2787 
Q 1159 2491 1159 1978 
L 1159 0 
L 581 0 
L 581 3500 
L 1159 3500 
L 1159 2956 
Q 1366 3272 1645 3428 
Q 1925 3584 2291 3584 
Q 2894 3584 3203 3211 
Q 3513 2838 3513 2113 
z
" transform="scale(0.015625)"/>
      <path id="DejaVuSans-3a" d="M 750 794 
L 1409 794 
L 1409 0 
L 750 0 
L 750 794 
z
M 750 3309 
L 1409 3309 
L 1409 2516 
L 750 2516 
L 750 3309 
z
" transform="scale(0.015625)"/>
      <path id="DejaVuSans-30" d="M 2034 4250 
Q 1547 4250 1301 3770 
Q 1056 3291 1056 2328 
Q 1056 1369 1301 889 
Q 1547 409 2034 409 
Q 2525 409 2770 889 
Q 3016 1369 3016 2328 
Q 3016 3291 2770 3770 
Q 2525 4250 2034 4250 
z
M 2034 4750 
Q 2819 4750 3233 4129 
Q 3647 3509 3647 2328 
Q 3647 1150 3233 529 
Q 2819 -91 2034 -91 
Q 1250 -91 836 529 
Q 422 1150 422 2328 
Q 422 3509 836 4129 
Q 1250 4750 2034 4750 
z
" transform="scale(0.015625)"/>
      <path id="DejaVuSans-2e" d="M 684 794 
L 1344 794 
L 1344 0 
L 684 0 
L 684 794 
z
" transform="scale(0.015625)"/>
      <path id="DejaVuSans-b2" d="M 838 2444 
L 2163 2444 
L 2163 2088 
L 294 2088 
L 294 2431 
Q 400 2528 597 2703 
Q 1672 3656 1672 3950 
Q 1672 4156 1509 4282 
Q 1347 4409 1081 4409 
Q 919 4409 728 4354 
Q 538 4300 313 4191 
L 313 4575 
Q 553 4663 761 4706 
Q 969 4750 1147 4750 
Q 1600 4750 1872 4544 
Q 2144 4338 2144 4000 
Q 2144 3566 1109 2678 
Q 934 2528 838 2444 
z
" transform="scale(0.015625)"/>
      <path id="DejaVuSans-7c" d="M 1344 4891 
L 1344 -1509 
L 813 -1509 
L 813 4891 
L 1344 4891 
z
" transform="scale(0.015625)"/>
      <path id="DejaVuSans-57" d="M 213 4666 
L 850 4666 
L 1831 722 
L 2809 4666 
L 3519 4666 
L 4500 722 
L 5478 4666 
L 6119 4666 
L 4947 0 
L 4153 0 
L 3169 4050 
L 2175 0 
L 1381 0 
L 213 4666 
z
" transform="scale(0.015625)"/>
      <path id="DejaVuSans-6f" d="M 1959 3097 
Q 1497 3097 1228 2736 
Q 959 2375 959 1747 
Q 959 1119 1226 758 
Q 1494 397 1959 397 
Q 2419 397 2687 759 
Q 2956 1122 2956 1747 
Q 2956 2369 2687 2733 
Q 2419 3097 1959 3097 
z
M 1959 3584 
Q 2709 3584 3137 3096 
Q 3566 2609 3566 1747 
Q 3566 888 3137 398 
Q 2709 -91 1959 -91 
Q 1206 -91 779 398 
Q 353 888 353 1747 
Q 353 2609 779 3096 
Q 1206 3584 1959 3584 
z
" transform="scale(0.015625)"/>
      <path id="DejaVuSans-67" d="M 2906 1791 
Q 2906 2416 2648 2759 
Q 2391 3103 1925 3103 
Q 1463 3103 1205 2759 
Q 947 2416 947 1791 
Q 947 1169 1205 825 
Q 1463 481 1925 481 
Q 2391 481 2648 825 
Q 2906 1169 2906 1791 
z
M 3481 434 
Q 3481 -459 3084 -895 
Q 2688 -1331 1869 -1331 
Q 1566 -1331 1297 -1286 
Q 1028 -1241 775 -1147 
L 775 -588 
Q 1028 -725 1275 -790 
Q 1522 -856 1778 -856 
Q 2344 -856 2625 -561 
Q 2906 -266 2906 331 
L 2906 616 
Q 2728 306 2450 153 
Q 2172 0 1784 0 
Q 1141 0 747 490 
Q 353 981 353 1791 
Q 353 2603 747 3093 
Q 1141 3584 1784 3584 
Q 2172 3584 2450 3431 
Q 2728 3278 2906 2969 
L 2906 3500 
L 3481 3500 
L 3481 434 
z
" transform="scale(0.015625)"/>
      <path id="DejaVuSans-43" d="M 4122 4306 
L 4122 3641 
Q 3803 3938 3442 4084 
Q 3081 4231 2675 4231 
Q 1875 4231 1450 3742 
Q 1025 3253 1025 2328 
Q 1025 1406 1450 917 
Q 1875 428 2675 428 
Q 3081 428 3442 575 
Q 3803 722 4122 1019 
L 4122 359 
Q 3791 134 3420 21 
Q 3050 -91 2638 -91 
Q 1578 -91 968 557 
Q 359 1206 359 2328 
Q 359 3453 968 4101 
Q 1578 4750 2638 4750 
Q 3056 4750 3426 4639 
Q 3797 4528 4122 4306 
z
" transform="scale(0.015625)"/>
      <path id="DejaVuSans-52" d="M 2841 2188 
Q 3044 2119 3236 1894 
Q 3428 1669 3622 1275 
L 4263 0 
L 3584 0 
L 2988 1197 
Q 2756 1666 2539 1819 
Q 2322 1972 1947 1972 
L 1259 1972 
L 1259 0 
L 628 0 
L 628 4666 
L 2053 4666 
Q 2853 4666 3247 4331 
Q 3641 3997 3641 3322 
Q 3641 2881 3436 2590 
Q 3231 2300 2841 2188 
z
M 1259 4147 
L 1259 2491 
L 2053 2491 
Q 2509 2491 2742 2702 
Q 2975 2913 2975 3322 
Q 2975 3731 2742 3939 
Q 2509 4147 2053 4147 
L 1259 4147 
z
" transform="scale(0.015625)"/>
      <path id="DejaVuSans-45" d="M 628 4666 
L 3578 4666 
L 3578 4134 
L 1259 4134 
L 1259 2753 
L 3481 2753 
L 3481 2222 
L 1259 2222 
L 1259 531 
L 3634 531 
L 3634 0 
L 628 0 
L 628 4666 
z
" transform="scale(0.015625)"/>
      <path id="DejaVuSans-50" d="M 1259 4147 
L 1259 2394 
L 2053 2394 
Q 2494 2394 2734 2622 
Q 2975 2850 2975 3272 
Q 2975 3691 2734 3919 
Q 2494 4147 2053 4147 
L 1259 4147 
z
M 628 4666 
L 2053 4666 
Q 2838 4666 3239 4311 
Q 3641 3956 3641 3272 
Q 3641 2581 3239 2228 
Q 2838 1875 2053 1875 
L 1259 1875 
L 1259 0 
L 628 0 
L 628 4666 
z
" transform="scale(0.015625)"/>
      <path id="DejaVuSans-47" d="M 3809 666 
L 3809 1919 
L 2778 1919 
L 2778 2438 
L 4434 2438 
L 4434 434 
Q 4069 175 3628 42 
Q 3188 -91 2688 -91 
Q 1594 -91 976 548 
Q 359 1188 359 2328 
Q 359 3472 976 4111 
Q 1594 4750 2688 4750 
Q 3144 4750 3555 4637 
Q 3966 4525 4313 4306 
L 4313 3634 
Q 3963 3931 3569 4081 
Q 3175 4231 2741 4231 
Q 1884 4231 1454 3753 
Q 1025 3275 1025 2328 
Q 1025 1384 1454 906 
Q 1884 428 2741 428 
Q 3075 428 3337 486 
Q 3600 544 3809 666 
z
" transform="scale(0.015625)"/>
      <path id="DejaVuSans-33" d="M 2597 2516 
Q 3050 2419 3304 2112 
Q 3559 1806 3559 1356 
Q 3559 666 3084 287 
Q 2609 -91 1734 -91 
Q 1441 -91 1130 -33 
Q 819 25 488 141 
L 488 750 
Q 750 597 1062 519 
Q 1375 441 1716 441 
Q 2309 441 2620 675 
Q 2931 909 2931 1356 
Q 2931 1769 2642 2001 
Q 2353 2234 1838 2234 
L 1294 2234 
L 1294 2753 
L 1863 2753 
Q 2328 2753 2575 2939 
Q 2822 3125 2822 3475 
Q 2822 3834 2567 4026 
Q 2313 4219 1838 4219 
Q 1578 4219 1281 4162 
Q 984 4106 628 3988 
L 628 4550 
Q 988 4650 1302 4700 
Q 1616 4750 1894 4750 
Q 2613 4750 3031 4423 
Q 3450 4097 3450 3541 
Q 3450 3153 3228 2886 
Q 3006 2619 2597 2516 
z
" transform="scale(0.015625)"/>
      <path id="DejaVuSans-32" d="M 1228 531 
L 3431 531 
L 3431 0 
L 469 0 
L 469 531 
Q 828 903 1448 1529 
Q 2069 2156 2228 2338 
Q 2531 2678 2651 2914 
Q 2772 3150 2772 3378 
Q 2772 3750 2511 3984 
Q 2250 4219 1831 4219 
Q 1534 4219 1204 4116 
Q 875 4013 500 3803 
L 500 4441 
Q 881 4594 1212 4672 
Q 1544 4750 1819 4750 
Q 2544 4750 2975 4387 
Q 3406 4025 3406 3419 
Q 3406 3131 3298 2873 
Q 3191 2616 2906 2266 
Q 2828 2175 2409 1742 
Q 1991 1309 1228 531 
z
" transform="scale(0.015625)"/>
      <path id="DejaVuSans-36" d="M 2113 2584 
Q 1688 2584 1439 2293 
Q 1191 2003 1191 1497 
Q 1191 994 1439 701 
Q 1688 409 2113 409 
Q 2538 409 2786 701 
Q 3034 994 3034 1497 
Q 3034 2003 2786 2293 
Q 2538 2584 2113 2584 
z
M 3366 4563 
L 3366 3988 
Q 3128 4100 2886 4159 
Q 2644 4219 2406 4219 
Q 1781 4219 1451 3797 
Q 1122 3375 1075 2522 
Q 1259 2794 1537 2939 
Q 1816 3084 2150 3084 
Q 2853 3084 3261 2657 
Q 3669 2231 3669 1497 
Q 3669 778 3244 343 
Q 2819 -91 2113 -91 
Q 1303 -91 875 529 
Q 447 1150 447 2328 
Q 447 3434 972 4092 
Q 1497 4750 2381 4750 
Q 2619 4750 2861 4703 
Q 3103 4656 3366 4563 
z
" transform="scale(0.015625)"/>
      <path id="DejaVuSans-37" d="M 525 4666 
L 3525 4666 
L 3525 4397 
L 1831 0 
L 1172 0 
L 2766 4134 
L 525 4134 
L 525 4666 
z
" transform="scale(0.015625)"/>
     </defs>
     <use xlink:href="#DejaVuSans-53"/>
     <use xlink:href="#DejaVuSans-79" transform="translate(63.476562 0)"/>
     <use xlink:href="#DejaVuSans-6d" transform="translate(122.65625 0)"/>
     <use xlink:href="#DejaVuSans-6d" transform="translate(220.068359 0)"/>
     <use xlink:href="#DejaVuSans-65" transform="translate(317.480469 0)"/>
     <use xlink:href="#DejaVuSans-74" transform="translate(379.003906 0)"/>
     <use xlink:href="#DejaVuSans-72" transform="translate(418.212891 0)"/>
     <use xlink:href="#DejaVuSans-69" transform="translate(459.326172 0)"/>
     <use xlink:href="#DejaVuSans-63" transform="translate(487.109375 0)"/>
     <use xlink:href="#DejaVuSans-20" transform="translate(542.089844 0)"/>
     <use xlink:href="#DejaVuSans-64" transform="translate(573.876953 0)"/>
     <use xlink:href="#DejaVuSans-69" transform="translate(637.353516 0)"/>
     <use xlink:href="#DejaVuSans-66" transform="translate(665.136719 0)"/>
     <use xlink:href="#DejaVuSans-66" transform="translate(700.341797 0)"/>
     <use xlink:href="#DejaVuSans-65" transform="translate(735.546875 0)"/>
     <use xlink:href="#DejaVuSans-72" transform="translate(797.070312 0)"/>
     <use xlink:href="#DejaVuSans-65" transform="translate(835.933594 0)"/>
     <use xlink:href="#DejaVuSans-6e" transform="translate(897.457031 0)"/>
     <use xlink:href="#DejaVuSans-63" transform="translate(960.835938 0)"/>
     <use xlink:href="#DejaVuSans-65" transform="translate(1015.816406 0)"/>
     <use xlink:href="#DejaVuSans-3a" transform="translate(1077.339844 0)"/>
     <use xlink:href="#DejaVuSans-20" transform="translate(1111.03125 0)"/>
     <use xlink:href="#DejaVuSans-30" transform="translate(1142.818359 0)"/>
     <use xlink:href="#DejaVuSans-2e" transform="translate(1206.441406 0)"/>
     <use xlink:href="#DejaVuSans-30" transform="translate(1238.228516 0)"/>
     <use xlink:href="#DejaVuSans-30" transform="translate(1301.851562 0)"/>
     <use xlink:href="#DejaVuSans-30" transform="translate(1365.474609 0)"/>
     <use xlink:href="#DejaVuSans-20" transform="translate(1429.097656 0)"/>
     <use xlink:href="#DejaVuSans-6d" transform="translate(1460.884766 0)"/>
     <use xlink:href="#DejaVuSans-b2" transform="translate(1558.296875 0)"/>
     <use xlink:href="#DejaVuSans-20" transform="translate(1598.384766 0)"/>
     <use xlink:href="#DejaVuSans-7c" transform="translate(1630.171875 0)"/>
     <use xlink:href="#DejaVuSans-20" transform="translate(1663.863281 0)"/>
     <use xlink:href="#DejaVuSans-57" transform="translate(1695.650391 0)"/>
     <use xlink:href="#DejaVuSans-6f" transform="translate(1788.652344 0)"/>
     <use xlink:href="#DejaVuSans-72" transform="translate(1849.833984 0)"/>
     <use xlink:href="#DejaVuSans-6b" transform="translate(1890.947266 0)"/>
     <use xlink:href="#DejaVuSans-69" transform="translate(1948.857422 0)"/>
     <use xlink:href="#DejaVuSans-6e" transform="translate(1976.640625 0)"/>
     <use xlink:href="#DejaVuSans-67" transform="translate(2040.019531 0)"/>
     <use xlink:href="#DejaVuSans-20" transform="translate(2103.496094 0)"/>
     <use xlink:href="#DejaVuSans-43" transform="translate(2135.283203 0)"/>
     <use xlink:href="#DejaVuSans-52" transform="translate(2205.107422 0)"/>
     <use xlink:href="#DejaVuSans-53" transform="translate(2274.589844 0)"/>
     <use xlink:href="#DejaVuSans-3a" transform="translate(2338.066406 0)"/>
     <use xlink:href="#DejaVuSans-20" transform="translate(2371.757812 0)"/>
     <use xlink:href="#DejaVuSans-45" transform="translate(2403.544922 0)"/>
     <use xlink:href="#DejaVuSans-50" transform="translate(2466.728516 0)"/>
     <use xlink:href="#DejaVuSans-53" transform="translate(2527.03125 0)"/>
     <use xlink:href="#DejaVuSans-47" transform="translate(2590.507812 0)"/>
     <use xlink:href="#DejaVuSans-3a" transform="translate(2667.998047 0)"/>
     <use xlink:href="#DejaVuSans-33" transform="translate(2701.689453 0)"/>
     <use xlink:href="#DejaVuSans-32" transform="translate(2765.3125 0)"/>
     <use xlink:href="#DejaVuSans-36" transform="translate(2828.935547 0)"/>
     <use xlink:href="#DejaVuSans-31" transform="translate(2892.558594 0)"/>
     <use xlink:href="#DejaVuSans-37" transform="translate(2956.181641 0)"/>
    </g>
   </g>
   <g id="text_4">
    <!-- 500 m Analytical Buffer — Regenerated vs External Reference -->
    <g transform="translate(31.994193 16.318125) scale(0.12 -0.12)">
     <defs>
      <path id="DejaVuSans-35" d="M 691 4666 
L 3169 4666 
L 3169 4134 
L 1269 4134 
L 1269 2991 
Q 1406 3038 1543 3061 
Q 1681 3084 1819 3084 
Q 2600 3084 3056 2656 
Q 3513 2228 3513 1497 
Q 3513 744 3044 326 
Q 2575 -91 1722 -91 
Q 1428 -91 1123 -41 
Q 819 9 494 109 
L 494 744 
Q 775 591 1075 516 
Q 1375 441 1709 441 
Q 2250 441 2565 725 
Q 2881 1009 2881 1497 
Q 2881 1984 2565 2268 
Q 2250 2553 1709 2553 
Q 1456 2553 1204 2497 
Q 953 2441 691 2322 
L 691 4666 
z
" transform="scale(0.015625)"/>
      <path id="DejaVuSans-41" d="M 2188 4044 
L 1331 1722 
L 3047 1722 
L 2188 4044 
z
M 1831 4666 
L 2547 4666 
L 4325 0 
L 3669 0 
L 3244 1197 
L 1141 1197 
L 716 0 
L 50 0 
L 1831 4666 
z
" transform="scale(0.015625)"/>
      <path id="DejaVuSans-61" d="M 2194 1759 
Q 1497 1759 1228 1600 
Q 959 1441 959 1056 
Q 959 750 1161 570 
Q 1363 391 1709 391 
Q 2188 391 2477 730 
Q 2766 1069 2766 1631 
L 2766 1759 
L 2194 1759 
z
M 3341 1997 
L 3341 0 
L 2766 0 
L 2766 531 
Q 2569 213 2275 61 
Q 1981 -91 1556 -91 
Q 1019 -91 701 211 
Q 384 513 384 1019 
Q 384 1609 779 1909 
Q 1175 2209 1959 2209 
L 2766 2209 
L 2766 2266 
Q 2766 2663 2505 2880 
Q 2244 3097 1772 3097 
Q 1472 3097 1187 3025 
Q 903 2953 641 2809 
L 641 3341 
Q 956 3463 1253 3523 
Q 1550 3584 1831 3584 
Q 2591 3584 2966 3190 
Q 3341 2797 3341 1997 
z
" transform="scale(0.015625)"/>
      <path id="DejaVuSans-6c" d="M 603 4863 
L 1178 4863 
L 1178 0 
L 603 0 
L 603 4863 
z
" transform="scale(0.015625)"/>
      <path id="DejaVuSans-42" d="M 1259 2228 
L 1259 519 
L 2272 519 
Q 2781 519 3026 730 
Q 3272 941 3272 1375 
Q 3272 1813 3026 2020 
Q 2781 2228 2272 2228 
L 1259 2228 
z
M 1259 4147 
L 1259 2741 
L 2194 2741 
Q 2656 2741 2882 2914 
Q 3109 3088 3109 3444 
Q 3109 3797 2882 3972 
Q 2656 4147 2194 4147 
L 1259 4147 
z
M 628 4666 
L 2241 4666 
Q 2963 4666 3353 4366 
Q 3744 4066 3744 3513 
Q 3744 3084 3544 2831 
Q 3344 2578 2956 2516 
Q 3422 2416 3680 2098 
Q 3938 1781 3938 1306 
Q 3938 681 3513 340 
Q 3088 0 2303 0 
L 628 0 
L 628 4666 
z
" transform="scale(0.015625)"/>
      <path id="DejaVuSans-75" d="M 544 1381 
L 544 3500 
L 1119 3500 
L 1119 1403 
Q 1119 906 1312 657 
Q 1506 409 1894 409 
Q 2359 409 2629 706 
Q 2900 1003 2900 1516 
L 2900 3500 
L 3475 3500 
L 3475 0 
L 2900 0 
L 2900 538 
Q 2691 219 2414 64 
Q 2138 -91 1772 -91 
Q 1169 -91 856 284 
Q 544 659 544 1381 
z
M 1991 3584 
L 1991 3584 
z
" transform="scale(0.015625)"/>
      <path id="DejaVuSans-2014" d="M 313 1978 
L 6088 1978 
L 6088 1528 
L 313 1528 
L 313 1978 
z
" transform="scale(0.015625)"/>
      <path id="DejaVuSans-76" d="M 191 3500 
L 800 3500 
L 1894 563 
L 2988 3500 
L 3597 3500 
L 2284 0 
L 1503 0 
L 191 3500 
z
" transform="scale(0.015625)"/>
      <path id="DejaVuSans-73" d="M 2834 3397 
L 2834 2853 
Q 2591 2978 2328 3040 
Q 2066 3103 1784 3103 
Q 1356 3103 1142 2972 
Q 928 2841 928 2578 
Q 928 2378 1081 2264 
Q 1234 2150 1697 2047 
L 1894 2003 
Q 2506 1872 2764 1633 
Q 3022 1394 3022 966 
Q 3022 478 2636 193 
Q 2250 -91 1575 -91 
Q 1294 -91 989 -36 
Q 684 19 347 128 
L 347 722 
Q 666 556 975 473 
Q 1284 391 1588 391 
Q 1994 391 2212 530 
Q 2431 669 2431 922 
Q 2431 1156 2273 1281 
Q 2116 1406 1581 1522 
L 1381 1569 
Q 847 1681 609 1914 
Q 372 2147 372 2553 
Q 372 3047 722 3315 
Q 1072 3584 1716 3584 
Q 2034 3584 2315 3537 
Q 2597 3491 2834 3397 
z
" transform="scale(0.015625)"/>
      <path id="DejaVuSans-78" d="M 3513 3500 
L 2247 1797 
L 3578 0 
L 2900 0 
L 1881 1375 
L 863 0 
L 184 0 
L 1544 1831 
L 300 3500 
L 978 3500 
L 1906 2253 
L 2834 3500 
L 3513 3500 
z
" transform="scale(0.015625)"/>
     </defs>
     <use xlink:href="#DejaVuSans-35"/>
     <use xlink:href="#DejaVuSans-30" transform="translate(63.623047 0)"/>
     <use xlink:href="#DejaVuSans-30" transform="translate(127.246094 0)"/>
     <use xlink:href="#DejaVuSans-20" transform="translate(190.869141 0)"/>
     <use xlink:href="#DejaVuSans-6d" transform="translate(222.65625 0)"/>
     <use xlink:href="#DejaVuSans-20" transform="translate(320.068359 0)"/>
     <use xlink:href="#DejaVuSans-41" transform="translate(351.855469 0)"/>
     <use xlink:href="#DejaVuSans-6e" transform="translate(420.263672 0)"/>
     <use xlink:href="#DejaVuSans-61" transform="translate(483.642578 0)"/>
     <use xlink:href="#DejaVuSans-6c" transform="translate(544.921875 0)"/>
     <use xlink:href="#DejaVuSans-79" transform="translate(572.705078 0)"/>
     <use xlink:href="#DejaVuSans-74" transform="translate(631.884766 0)"/>
     <use xlink:href="#DejaVuSans-69" transform="translate(671.09375 0)"/>
     <use xlink:href="#DejaVuSans-63" transform="translate(698.876953 0)"/>
     <use xlink:href="#DejaVuSans-61" transform="translate(753.857422 0)"/>
     <use xlink:href="#DejaVuSans-6c" transform="translate(815.136719 0)"/>
     <use xlink:href="#DejaVuSans-20" transform="translate(842.919922 0)"/>
     <use xlink:href="#DejaVuSans-42" transform="translate(874.707031 0)"/>
     <use xlink:href="#DejaVuSans-75" transform="translate(943.310547 0)"/>
     <use xlink:href="#DejaVuSans-66" transform="translate(1006.689453 0)"/>
     <use xlink:href="#DejaVuSans-66" transform="translate(1041.894531 0)"/>
     <use xlink:href="#DejaVuSans-65" transform="translate(1077.099609 0)"/>
     <use xlink:href="#DejaVuSans-72" transform="translate(1138.623047 0)"/>
     <use xlink:href="#DejaVuSans-20" transform="translate(1179.736328 0)"/>
     <use xlink:href="#DejaVuSans-2014" transform="translate(1211.523438 0)"/>
     <use xlink:href="#DejaVuSans-20" transform="translate(1311.523438 0)"/>
     <use xlink:href="#DejaVuSans-52" transform="translate(1343.310547 0)"/>
     <use xlink:href="#DejaVuSans-65" transform="translate(1408.292969 0)"/>
     <use xlink:href="#DejaVuSans-67" transform="translate(1469.816406 0)"/>
     <use xlink:href="#DejaVuSans-65" transform="translate(1533.292969 0)"/>
     <use xlink:href="#DejaVuSans-6e" transform="translate(1594.816406 0)"/>
     <use xlink:href="#DejaVuSans-65" transform="translate(1658.195312 0)"/>
     <use xlink:href="#DejaVuSans-72" transform="translate(1719.71875 0)"/>
     <use xlink:href="#DejaVuSans-61" transform="translate(1760.832031 0)"/>
     <use xlink:href="#DejaVuSans-74" transform="translate(1822.111328 0)"/>
     <use xlink:href="#DejaVuSans-65" transform="translate(1861.320312 0)"/>
     <use xlink:href="#DejaVuSans-64" transform="translate(1922.84375 0)"/>
     <use xlink:href="#DejaVuSans-20" transform="translate(1986.320312 0)"/>
     <use xlink:href="#DejaVuSans-76" transform="translate(2018.107422 0)"/>
     <use xlink:href="#DejaVuSans-73" transform="translate(2077.287109 0)"/>
     <use xlink:href="#DejaVuSans-20" transform="translate(2129.386719 0)"/>
     <use xlink:href="#DejaVuSans-45" transform="translate(2161.173828 0)"/>
     <use xlink:href="#DejaVuSans-78" transform="translate(2224.357422 0)"/>
     <use xlink:href="#DejaVuSans-74" transform="translate(2283.537109 0)"/>
     <use xlink:href="#DejaVuSans-65" transform="translate(2322.746094 0)"/>
     <use xlink:href="#DejaVuSans-72" transform="translate(2384.269531 0)"/>
     <use xlink:href="#DejaVuSans-6e" transform="translate(2423.632812 0)"/>
     <use xlink:href="#DejaVuSans-61" transform="translate(2487.011719 0)"/>
     <use xlink:href="#DejaVuSans-6c" transform="translate(2548.291016 0)"/>
     <use xlink:href="#DejaVuSans-20" transform="translate(2576.074219 0)"/>
     <use xlink:href="#DejaVuSans-52" transform="translate(2607.861328 0)"/>
     <use xlink:href="#DejaVuSans-65" transform="translate(2672.84375 0)"/>
     <use xlink:href="#DejaVuSans-66" transform="translate(2734.367188 0)"/>
     <use xlink:href="#DejaVuSans-65" transform="translate(2769.572266 0)"/>
     <use xlink:href="#DejaVuSans-72" transform="translate(2831.095703 0)"/>
     <use xlink:href="#DejaVuSans-65" transform="translate(2869.958984 0)"/>
     <use xlink:href="#DejaVuSans-6e" transform="translate(2931.482422 0)"/>
     <use xlink:href="#DejaVuSans-63" transform="translate(2994.861328 0)"/>
     <use xlink:href="#DejaVuSans-65" transform="translate(3049.841797 0)"/>
    </g>
   </g>
  </g>
 </g>
 <defs>
  <clipPath id="pa10fdcf8b1">
   <rect x="7.2" y="22.318125" width="422.955261" height="498.96"/>
  </clipPath>
 </defs>
</svg>
